<?xml version="1.0" encoding="UTF-8" standalone="no"?>
<!-- Created with Inkscape (http://www.inkscape.org/) -->

<svg
   width="404mm"
   height="354mm"
   viewBox="0 0 404 354"
   version="1.1"
   id="svg5"
   xml:space="preserve"
   inkscape:version="1.2.1 (9c6d41e410, 2022-07-14, custom)"
   sodipodi:docname="bg_logo.svg"
   xmlns:inkscape="http://www.inkscape.org/namespaces/inkscape"
   xmlns:sodipodi="http://sodipodi.sourceforge.net/DTD/sodipodi-0.dtd"
   xmlns="http://www.w3.org/2000/svg"
   xmlns:svg="http://www.w3.org/2000/svg"><sodipodi:namedview
     id="namedview7"
     pagecolor="#ffffff"
     bordercolor="#666666"
     borderopacity="1.0"
     inkscape:showpageshadow="2"
     inkscape:pageopacity="0.0"
     inkscape:pagecheckerboard="0"
     inkscape:deskcolor="#d1d1d1"
     inkscape:document-units="mm"
     showgrid="false"
     inkscape:zoom="0.18121628"
     inkscape:cx="-1098.1354"
     inkscape:cy="-68.978352"
     inkscape:window-width="1920"
     inkscape:window-height="1176"
     inkscape:window-x="1920"
     inkscape:window-y="0"
     inkscape:window-maximized="1"
     inkscape:current-layer="layer1" /><defs
     id="defs2" /><g
     inkscape:label="Layer 1"
     inkscape:groupmode="layer"
     id="layer1"><path
       style="fill:#1c95d1;fill-opacity:1;stroke-width:0.268937"
       d="M 76.824789,347.2022 C 39.121319,346.44536 5.7156594,313.16845 5.1286594,275.49999 2.1240994,247.63872 21.397229,225.59526 33.311009,202.48551 64.696689,148.68898 95.543879,94.592554 127.01786,40.744281 c 17.5238,-30.51788 58.74185,-43.8248396 91.17096,-30.27552 20.49756,6.95997 34.51715,24.78952 44.06205,43.39451 38.78375,67.377889 77.87768,134.692299 116.62484,202.192949 8.42516,15.81375 22.05908,31.02515 19.70616,50.42717 -1.27757,28.52758 -34.30209,49.27564 -60.64421,37.71397 -20.43977,-7.26911 -27.38093,-29.5268 -38.05459,-46.18839 -29.07878,-50.06596 -57.7046,-100.20524 -86.87208,-150.14015 -5.69069,-10.00906 -11.35916,-25.50647 -25.78006,-22.50647 -12.08362,2.85582 -13.61885,16.65236 -8.10124,27.6558 10.27392,20.48864 15.67166,28.95401 26.87204,48.05595 9.43587,16.34337 2.76729,24.6705 -18.14721,24.37464 -18.19738,-0.33932 -43.77577,-1.52775 -61.48755,1.48866 -14.5789,5.33479 -11.44815,28.68567 3.65736,30.55572 31.252,1.37452 62.73974,-0.98045 93.89666,1.46208 26.36969,5.26099 42.69724,37.45986 30.52834,61.71879 -7.70475,18.30132 -28.03356,28.8164 -47.53539,26.61358 -43.36116,0.12511 -86.73362,0.31431 -130.089151,-0.0781 z M 218.12437,317.88056 c 17.77523,-0.36122 14.61153,-30.86314 0.56826,-30.73163 -31.38385,-0.30181 -62.40643,0.009 -93.52265,-1.44332 -27.951771,-3.68616 -46.567641,-37.96416 -32.743521,-63.13427 7.736421,-17.81985 27.828531,-26.03235 46.893991,-25.82765 12.3756,0.12508 10.85009,-0.14075 31.53868,-0.0157 -10.99334,-14.9878 -27.18454,-41.78778 -24.74408,-59.97994 2.05281,-26.2297 30.31777,-46.438116 55.8721,-38.751956 15.53167,3.317886 26.51267,16.272066 32.68159,30.188546 23.60377,40.14462 46.76313,80.77852 70.05244,121.06777 12.84076,21.52211 24.58354,43.63015 37.9202,64.73756 9.1411,8.94229 26.78022,3.48365 27.43152,-9.92416 0.15637,-11.34713 -9.64018,-20.38638 -14.06233,-30.59934 C 321.85341,214.57675 287.9443,155.68736 253.90968,96.844564 c -9.74651,-15.88553 -17.68154,-33.17747 -29.0623,-47.910683 -18.71613,-22.11241 -57.63622,-18.95995 -72.81752,5.672563 -24.82972,42.46486 -49.07727,85.135656 -73.914351,127.771116 -13.7647,24.27489 -28.0772,47.99089 -41.39772,72.39838 -8.82251,22.0666 2.0001,49.25719 24.01255,58.78119 10.52619,5.21672 36.83774,4.33619 56.116481,4.2638 33.91388,-0.12511 67.37549,0.64269 101.2775,0.0626 z"
       id="path625"
       sodipodi:nodetypes="ccccccccccccscccccccccccccsccccccccccccccscc" /></g></svg>
