<svg width="133" height="30" viewBox="0 0 133 30" fill="none" xmlns="http://www.w3.org/2000/svg">
  <g clip-path="url(#clip0_223_912)">
    <path d="M13.7273 15.7922C13.3266 15.6984 12.9353 15.6362 12.541 15.6362H8.40873V18.8962H12.6238C13.3391 18.8962 13.9323 18.7563 14.3783 18.477C14.8063 18.2097 15.0114 17.8023 15.0114 17.2434C15.0114 16.8295 14.8949 16.5193 14.6592 16.2981C14.4184 16.0619 14.1029 15.8941 13.7273 15.7922ZM26.1859 11.0686C26.0915 11.3421 25.9937 11.5969 25.8925 11.8611C25.7339 12.2681 25.575 12.6531 25.413 13.0167L24.15 15.9473H28.24L26.9444 12.9514C26.6784 12.3429 26.4272 11.7177 26.1859 11.0686ZM13.8281 13.0294C14.1952 12.7804 14.3783 12.4327 14.3783 11.9794C14.3783 11.4664 14.1922 11.1211 13.8095 10.907C13.3877 10.6805 12.8649 10.5586 12.254 10.5586H8.41483V13.4302H12.4588C12.9753 13.4367 13.4339 13.2935 13.8281 13.0294ZM58.1642 13.1319L68 0L59.3255 3.52723L3.56737 3.5083C1.60809 3.5083 0 5.14273 0 7.1349V22.3734C0 24.3718 1.60809 26 3.56737 26H47.6835L56.5381 14.6111L51.51 8.38382H54.4569L58.1642 13.1319ZM16.8667 19.1572C16.5849 19.6513 16.2092 20.0456 15.7507 20.3321C15.3048 20.6146 14.7938 20.8166 14.2499 20.9288C13.7092 21.0434 13.1679 21.1021 12.6238 21.1021H6.17469V8.37105H12.3001C13.7147 8.37105 14.7938 8.65104 15.5215 9.20692C16.2673 9.76631 16.6436 10.6025 16.6436 11.6652C16.6436 12.2554 16.484 12.7901 16.1695 13.2625C15.9277 13.626 15.5982 13.9309 15.1764 14.1574C15.4637 14.2817 15.7382 14.443 16.0044 14.63C16.3923 14.9029 16.7078 15.2664 16.9309 15.7015C17.1662 16.1461 17.2821 16.6744 17.2821 17.2894C17.2946 18.0292 17.1476 18.6569 16.8667 19.1572ZM30.4992 21.1021L29.1965 18.1318H23.1939L21.8918 21.1021H19.5529L25.1009 8.37105H27.3998L27.4484 8.47671L32.9224 21.1021H30.4992ZM48.3801 21.1021H46.2986L38.0582 11.8361L38.2168 13.5362C38.2874 14.2782 38.3242 15.0333 38.3242 15.7794V21.1021H36.0925V8.37105H38.1404L46.3627 17.84C46.3226 17.4198 46.2805 16.9854 46.2524 16.5377C46.2038 15.8819 46.1765 15.2012 46.164 14.5209C46.1515 13.8464 46.1395 13.2093 46.1395 12.6127V8.37105H48.3706V21.1087H48.3801V21.1021Z" fill="black"/>
    <path d="M92.5117 11.4722C92.4198 11.7422 92.3192 11.9938 92.2191 12.2547C92.0599 12.6566 91.9048 13.0369 91.7404 13.3958L90.4815 16.2898H94.5601L93.2673 13.3314C93.008 12.736 92.7522 12.1193 92.5117 11.4722ZM110.27 11.8711C110.069 11.5946 109.801 11.371 109.471 11.2239C109.145 11.0644 108.77 10.9874 108.371 10.9874H104.616V14.6757H108.6C108.968 14.6757 109.31 14.5867 109.603 14.4115C109.895 14.2277 110.139 13.9975 110.31 13.7094C110.48 13.4265 110.572 13.1138 110.572 12.7919C110.562 12.4415 110.468 12.1414 110.27 11.8711ZM129.446 4H68.5589L59.9611 15.1296L65.0872 21.3802H62.1487L58.3697 16.6214L48 30L57.4729 26.1886L129.44 26.2012C131.402 26.2012 133 24.5868 133 22.6174V7.57512C133.006 5.6143 131.402 4 129.446 4ZM80.31 21.3802H78.7702L75.6526 14.0347L72.5438 21.3802H70.9525L66.6147 8.80835H69.0195L71.5378 16.3143C71.6437 16.6332 71.7414 16.956 71.8304 17.2928C71.869 17.4282 71.9059 17.5633 71.9392 17.692C71.989 17.5571 72.0341 17.4217 72.0926 17.2812C72.2172 16.9498 72.3454 16.615 72.4853 16.2837L74.7314 10.9228H76.716L78.9107 16.2655C79.1061 16.7439 79.2799 17.2106 79.4385 17.6457C79.4772 17.5114 79.5205 17.3733 79.5603 17.2318C79.6668 16.9035 79.7698 16.5601 79.8892 16.2253L82.5438 8.80835H84.9398L80.31 21.3802ZM96.8121 21.3802L95.514 18.447H89.5217L88.2225 21.3802H85.8938L91.4231 8.80835H93.7185L93.7641 8.91275L99.2297 21.3802H96.8091H96.8121ZM110.907 21.3802L107.874 16.8452H104.609V21.3802H102.385V8.80835H108.807C109.514 8.80835 110.181 8.97714 110.794 9.32145C111.405 9.66145 111.913 10.1281 112.3 10.7234C112.684 11.319 112.885 12.0245 112.885 12.8131C112.885 13.6511 112.62 14.4275 112.099 15.1115C111.632 15.7377 111.042 16.195 110.34 16.4957L113.645 21.4108L110.907 21.3802ZM126.848 10.9812H119.725V13.85H125.895V16.0258H119.725V19.2083H126.848V21.3802H117.497V8.80281H126.848V10.9812Z" fill="black"/>
  </g>
  <defs>
    <clipPath id="clip0_223_912">
      <rect width="133" height="30" fill="white"/>
    </clipPath>
  </defs>
</svg>
