<svg width="160" height="56" viewBox="0 0 200 21" fill="none" xmlns="http://www.w3.org/2000/svg">
  <path d="M124.328 20.8401C124.328 19.3516 124.328 17.8516 124.328 16.363C124.328 11.1875 124.328 6.01189 124.328 0.836314V0.298146C125.164 0.298146 125.954 0.355398 126.744 0.286696C127.5 0.217993 127.946 0.492802 128.404 1.08822C131.966 5.70273 135.572 10.2943 139.168 14.8974C139.259 15.0119 139.362 15.1378 139.523 15.3325V0.321047H142.878C142.878 0.4241 142.912 0.538604 142.912 0.641657C142.912 7.29433 142.912 13.947 142.912 20.5997C142.912 20.6798 142.912 20.7714 142.912 20.8516C141.767 20.8516 140.611 20.8516 139.466 20.8516C139.42 20.7829 139.397 20.7027 139.34 20.6455C135.55 15.7905 131.759 10.947 127.969 6.10349C127.901 6.02334 127.832 5.95464 127.706 5.80578V20.863H124.351L124.328 20.8401Z"></path><path d="M25.625 20.8393C25.9685 20.0378 26.312 19.2248 26.667 18.4233C29.2891 12.5149 31.9227 6.61793 34.5448 0.709533C34.6823 0.400372 34.8426 0.274418 35.1975 0.285869C36.0677 0.308769 36.938 0.297319 37.7968 0.285869C38.0487 0.285869 38.1975 0.34312 38.312 0.595029C41.2662 7.25915 44.2319 13.9118 47.1975 20.5645C47.2319 20.6561 47.2662 20.7477 47.3006 20.8393H43.6021C43.5448 20.7133 43.4761 20.5874 43.4303 20.4614C41.1861 15.4347 38.9532 10.408 36.709 5.38129C36.6403 5.22098 36.5601 5.07213 36.4456 4.83167C35.0945 7.86602 33.7891 10.8088 32.4494 13.7973H32.9303C34.167 13.7973 35.3922 13.7973 36.6288 13.7973C36.8922 13.7973 37.0296 13.866 37.1326 14.1179C37.5105 14.9996 37.9113 15.8813 38.3006 16.7515C38.3464 16.866 38.3807 16.9805 38.438 17.1408C38.2319 17.1408 38.083 17.1408 37.9342 17.1408C35.7357 17.1408 33.5372 17.1408 31.3387 17.1408C31.0639 17.1408 30.9265 17.221 30.812 17.4843C30.3311 18.6065 29.8273 19.7286 29.3235 20.8393H25.625Z"></path><path d="M0 9.45856C0.114504 8.90894 0.194656 8.35932 0.332061 7.82116C2.25573 0.229553 11.7023 -2.57579 17.4733 2.73719C17.5763 2.82879 17.6908 2.90894 17.7939 2.9891C16.958 3.81352 16.1565 4.59215 15.3321 5.39368C13.729 3.88222 11.7595 3.18375 9.49237 3.47001C7.66031 3.69902 6.16031 4.56925 4.99237 5.9891C2.70229 8.78299 2.91985 12.8021 5.43893 15.367C7.94657 17.9089 12.3321 18.3326 15.3435 15.4586C16.1336 16.2372 16.9237 17.0158 17.7939 17.8746C17.6679 17.9776 17.4962 18.0921 17.3473 18.2296C15.6985 19.6609 13.7977 20.5311 11.6221 20.783C11.5305 20.783 11.4389 20.8288 11.3359 20.8517H9.49237C9.40076 20.8288 9.30916 20.7944 9.21756 20.783C4.87786 20.2563 1.37405 17.1761 0.320611 12.9509C0.194657 12.4357 0.114504 11.9204 0.0114504 11.4051C0.0114504 10.7639 0.0114504 10.1227 0.0114504 9.48146L0 9.45856Z"></path><path d="M58.4656 20.8398C58.4427 20.6795 58.4084 20.5192 58.4084 20.3475C58.4084 18.6643 58.4084 16.9696 58.4084 15.2864C58.4084 15.0574 58.3511 14.8169 58.2595 14.6108C56.2214 10.0192 54.1717 5.41617 52.1221 0.824569C52.0534 0.675714 51.9962 0.515409 51.916 0.320752C52.0878 0.320752 52.2137 0.297852 52.3511 0.297852C53.3015 0.297852 54.2519 0.309302 55.2023 0.297852C55.5114 0.297852 55.6717 0.400905 55.7977 0.687165C57.1603 3.76732 58.5343 6.84747 59.9084 9.92762C59.9656 10.065 60.0343 10.2024 60.1259 10.3971C60.2061 10.2139 60.2748 10.0879 60.332 9.95052C61.7061 6.87037 63.0801 3.79022 64.4427 0.710065C64.5801 0.412355 64.729 0.297852 65.0611 0.309302C66 0.332203 66.9389 0.309302 67.8778 0.309302C68.0153 0.309302 68.1412 0.309302 68.3473 0.309302C68.1527 0.744416 67.9924 1.11083 67.832 1.47724C65.8855 5.85129 63.9275 10.2368 61.9924 14.6108C61.8893 14.8284 61.8435 15.0917 61.832 15.3322C61.832 17.1757 61.832 19.0078 61.832 20.8513H58.4771L58.4656 20.8398Z"></path><path d="M158.52 20.8397C158.52 17.8168 158.52 14.7939 158.52 11.7595C158.52 9.24043 158.52 6.70989 158.52 4.19081C158.52 4.04195 158.52 3.8931 158.52 3.68699H152.439V0.332031H168.001V3.67554H161.909V4.24806C161.909 9.58394 161.909 14.9313 161.909 20.2671C161.909 20.4618 161.897 20.6565 161.886 20.8511H158.531L158.52 20.8397Z"></path><path d="M77.1181 20.8394C77.0952 20.6791 77.0723 20.5073 77.0723 20.347C77.0723 13.8318 77.0723 7.3165 77.0723 0.801228V0.320312H80.4501V17.4157H90.3089V20.8508H77.1181V20.8394Z"></path><path d="M99.7436 3.65264V0.332031H114.789V3.65264H99.7436Z"></path><path d="M99.7207 20.8396V17.4618H114.824V20.3015C114.824 20.4337 114.803 20.5726 114.784 20.708C114.778 20.7485 114.772 20.7886 114.767 20.8282H99.7322L99.7207 20.8396Z"></path>
  <path d="M99.8124 8.89689V12.2061H114.789V8.89689H99.8124Z"></path>
</svg>