<svg id="Ebene_1" data-name="Ebene 1" xmlns="http://www.w3.org/2000/svg" viewBox="0 0 160 51.17"><defs><style>.cls-1{fill:maroon;}</style></defs><path class="cls-1" d="M404.85,150.32v1c1.75.38,3.46,3.19,3.46,17.74,0,4.24,3.07,6.53,6,6.53a5,5,0,0,0,3.91-1.79,9.5,9.5,0,0,1-1.16.09c-4.45,0-4.68-3.41-4.68-6.94,0-14.52-4-15.74-4-15.74,1.48-.2,4-4.62,4-13.5,0-4.55,2.34-7.13,5.84-7.18a4.26,4.26,0,0,0-2.79-1.05c-3,0-7.1,2.44-7.1,7.82,0,10.36-1.6,13-3.44,13Zm33.38,6.45c-1.42,2.61-4.79,3.83-7.06,3.83-6,0-8.85-5.81-8.85-12,0-5.12,2.38-9.93,7.82-9.93a4.9,4.9,0,0,1,5.05,4l.63.51a5.19,5.19,0,0,0,2.48-3.58c-.86-1.78-4.29-3.28-7.68-3.28-7.59,0-12.64,5.81-12.64,14,0,7.32,4,12.92,11.45,12.92,4.94,0,9-2.25,9-5.68a2.26,2.26,0,0,0-.16-.83Zm19-5.08v-.91c0-1.94-.33-8-7.14-8-5,0-8.29,4.78-8.29,11.12.12,6.63,3.9,9.4,8.09,9.4,3.74,0,7.69-2.49,7.69-5.53a3.29,3.29,0,0,0-.17-.95,7.66,7.66,0,0,1-6.15,3.46c-3.35,0-5.79-2.39-5.79-6.65,0-.56,0-1,0-1.58l9.51.11a4.28,4.28,0,0,0,2.29-.46ZM449.56,145c2.93,0,4.23,2.8,4.23,5.33l-8.45.16C446.05,147.39,447,145,449.56,145Zm17.69,17.78c-.39-1.37-.39-7-.39-8.36,0-2.67.9-8.68,4-8.68a1.9,1.9,0,0,1,1.82,1.35,2.43,2.43,0,0,0,.74.08,2,2,0,0,0,2-1.92v-.09c0-1.32-.94-2.37-2.72-2.37-3.63,0-6,4.85-6.11,5.13l.18-1.74a4.84,4.84,0,0,0,.14-1.07c0-1.3-.33-2.24-1.9-2.24a6.53,6.53,0,0,0-3.52,1v.71c.23,0,1.93.16,1.93,4.77,0,5.47-.16,11.08-.16,13.44h3.94Zm15.94-22.67h-1.93c-1.85,3.3-3.63,3.27-3.79,3.27l-.19,1.19a3,3,0,0,1,1.82,1.33,7.12,7.12,0,0,1,.4,3c0,2.44-.25,5.81-.25,8,0,4,.82,6.39,5.28,6.39,2.89,0,5.21-1.89,5.21-3.47a1.4,1.4,0,0,0-.23-.82c-.2.42-2,1.1-3.66,1.1-2.81,0-3.14-1.81-3.14-4.34l.05-10a2.87,2.87,0,0,1,.56,0c.75,0,1.93.08,2.64.08,1.62,0,3-.76,3-2.15a3.27,3.27,0,0,0-.08-.74s-.2.48-1.39.48h-4.8l.46-3.27Z" transform="translate(-404.85 -129.47)"/><path d="M498,162.76a15.2,15.2,0,0,1-.23-2.95c0-9,.23-13.65.23-13.65.12-1.81-.08-3.31-2-3.31a6.49,6.49,0,0,0-3.5,1v.71s2.05.16,1.89,4.77l-.32,13.3v.16H498Zm-4.29-25.27a2.16,2.16,0,0,0,2.11,2.12,2.2,2.2,0,0,0,2.1-2.14,2.15,2.15,0,0,0-2.1-2.05,2.12,2.12,0,0,0-2.12,2.07Zm12,23.19c.74,1.65,3.55,2.6,6.38,2.6,6.21,0,9.36-5.57,9.36-10.89,0-6.74-3.68-9.62-7.38-9.62a8.23,8.23,0,0,0-5.49,2.29,6.45,6.45,0,0,0,.25-2c.06-3.12.23-4.62.26-6.5.05-2.41-.46-3.6-2.47-3.6a5.92,5.92,0,0,0-3.24,1v.71c1.16.17,1.85,1.34,1.85,3.55,0,0,.08,5.25.08,13.21,0,5.45-.28,7.74.4,9.24ZM512,145.37c3.35,0,5.79,2.84,5.79,7.69,0,3-.83,8.25-5.25,8.25-2.75,0-3.43-1.27-3.58-4.42-.11-2.48-.16-5.87-.16-10.46v-.07a5.32,5.32,0,0,1,3.2-1Zm19.2,17.39a14.62,14.62,0,0,1-.24-1.65c-.19-4.37-.32-16,.05-21.74.28-4.26.31-6.39-2.38-6.39a5.88,5.88,0,0,0-3.23,1v.71c1.15.17,1.86,1.34,1.86,3.55,0,0,.08,14.17,0,24v.57Zm20.48-11.07v-.91c0-1.94-.31-8-7.13-8-5,0-8.3,4.78-8.3,11.12.13,6.63,3.91,9.4,8.09,9.4,3.76,0,7.7-2.49,7.7-5.53a3.47,3.47,0,0,0-.16-.95,7.67,7.67,0,0,1-6.16,3.46c-3.35,0-5.79-2.39-5.79-6.65,0-.56,0-1,0-1.58l9.52.11a4.19,4.19,0,0,0,2.28-.46ZM544,145c2.92,0,4.23,2.8,4.23,5.33l-8.45.16c.71-3.08,1.61-5.49,4.22-5.49Zm20.89,5.34v1c-1.75.38-3.46,3.19-3.46,17.74,0,4.24-3.09,6.53-6,6.53a5,5,0,0,1-3.91-1.79,9.5,9.5,0,0,0,1.16.09c4.45,0,4.68-3.41,4.68-6.94,0-14.52,4-15.74,4-15.74-1.48-.2-4-4.62-4-13.5,0-4.55-2.34-7.13-5.84-7.18a4.26,4.26,0,0,1,2.81-1.05c3,0,7.09,2.44,7.09,7.82C561.4,147.65,563,150.32,564.85,150.32ZM422.69,178.19a3.07,3.07,0,0,1-.05-.68c0-2.07.05-3.15.05-3.15,0-.43,0-.77-.45-.77a1.54,1.54,0,0,0-.82.23V174s.49,0,.44,1.11l-.06,3.07v0Zm-1-5.84a.5.5,0,0,0,.49.5.51.51,0,0,0,.5-.5.5.5,0,0,0-1,0Zm6.41,5.84a31.41,31.41,0,0,1-.08-3.53,1.11,1.11,0,0,0-1.1-1.09,2.08,2.08,0,0,0-1.75,1l.05-.25c0-.43,0-.77-.46-.77a1.61,1.61,0,0,0-.83.23l0,.16s.48,0,.46,1.11l0,3.07v0h.9a3.88,3.88,0,0,1-.06-.68c0-1,0-2.22,0-2.6a1.75,1.75,0,0,1,1.29-.61c.6,0,.76.39.74,1.27v2.62Zm2.53-5.23h-.45c-.43.76-.84.74-.87.74l-.05.28a.64.64,0,0,1,.41.32,1.46,1.46,0,0,1,.1.69c0,.58-.06,1.35-.06,1.85,0,.92.19,1.48,1.22,1.48.66,0,1.2-.44,1.2-.82a.23.23,0,0,0-.05-.17,1.42,1.42,0,0,1-.84.25c-.66,0-.73-.43-.73-1v-2.31h.75c.38,0,.71-.16.71-.49l0-.17s0,.1-.33.1h-1.11l.12-.74Zm5.64,2.67v-.21a1.61,1.61,0,0,0-1.65-1.85c-1.15,0-1.91,1.11-1.91,2.58s.91,2.16,1.86,2.16,1.78-.56,1.78-1.27l0-.22a1.81,1.81,0,0,1-1.42.81c-.77,0-1.33-.56-1.33-1.55l0-.36,2.19,0a.81.81,0,0,0,.53-.12Zm-1.78-1.55c.68,0,1,.66,1,1.24l-2,0c.16-.71.38-1.27,1-1.27Zm4.09,4.11a15.42,15.42,0,0,1-.08-1.93c0-.61.2-2,.92-2a.42.42,0,0,1,.42.3.32.32,0,0,0,.16,0,.45.45,0,0,0,.48-.47.55.55,0,0,0-.63-.55c-.84,0-1.38,1.12-1.42,1.19l.05-.4,0-.24c0-.3-.09-.53-.45-.53a1.54,1.54,0,0,0-.82.23V174c.06,0,.46,0,.46,1.11l0,3.1Zm6.52,0a27.27,27.27,0,0,1-.08-3.53,1.11,1.11,0,0,0-1.09-1.09,2.08,2.08,0,0,0-1.75,1l.05-.25c0-.43,0-.77-.48-.77a1.59,1.59,0,0,0-.81.23V174s.5,0,.46,1.11l0,3.07v0h.91a3.75,3.75,0,0,1-.07-.68v-2.6a1.67,1.67,0,0,1,1.28-.61c.58,0,.75.39.75,1.27l0,2.19a1.37,1.37,0,0,0,0,.43h.87Zm3.58-1a1.11,1.11,0,0,1-1,.44.65.65,0,0,1-.7-.61.13.13,0,0,1,0-.06c0-.89,1.69-.91,1.7-.91l0,1.15Zm1,.38a3.13,3.13,0,0,1-.13-1l0-1.77c0-.92-.65-1.3-1.65-1.3-.69,0-1.45.3-1.45.84a.4.4,0,0,0,.43.42.67.67,0,0,0,.33-.1l0-.09a.67.67,0,0,1,.69-.66c.74,0,.86.61.86,1.32l0,.56a4.08,4.08,0,0,0-.69-.09c-1,0-1.83.49-1.83,1.37a1.14,1.14,0,0,0,1.25,1.17,1.45,1.45,0,0,0,1.31-.89c0,.14.08.89.69.89a2,2,0,0,0,.82-.22v-.16A.73.73,0,0,1,449.66,177.6Zm2.51-4.64h-.44c-.43.76-.83.74-.88.74l-.05.28a.67.67,0,0,1,.43.32,1.68,1.68,0,0,1,.08.69l-.05,1.85c0,.92.2,1.48,1.23,1.48.66,0,1.2-.44,1.2-.82a.34.34,0,0,0-.05-.17,1.45,1.45,0,0,1-.86.25c-.64,0-.71-.43-.71-1v-2.31h.75c.37,0,.7-.16.7-.49a.47.47,0,0,0,0-.17s0,.1-.31.1h-1.11l.1-.74Zm3.42,5.23a3.07,3.07,0,0,1,0-.68c0-2.07,0-3.15,0-3.15,0-.43,0-.77-.45-.77a1.54,1.54,0,0,0-.82.23V174s.49,0,.44,1.11l-.06,3.07v0Zm-1-5.84a.5.5,0,1,0,.49-.48.49.49,0,0,0-.49.5Zm2.22,3.68a2.3,2.3,0,0,1,2.27-2.46c1,0,1.93.73,1.93,2.28a2.34,2.34,0,0,1-2.25,2.47c-1.9,0-1.95-2.14-1.95-2.31Zm.9-.38c0,1.24.54,2.21,1.3,2.21.59,0,1.09-.69,1.09-1.71,0-1.21-.61-2.12-1.35-2.12S457.72,175,457.72,175.65Zm8.34,2.54a29.42,29.42,0,0,1-.09-3.53,1.11,1.11,0,0,0-1.09-1.09,2.08,2.08,0,0,0-1.75,1l.05-.25c0-.43,0-.77-.48-.77a1.59,1.59,0,0,0-.81.23V174s.5,0,.46,1.11l0,3.07v0h.91a3,3,0,0,1-.07-.68l0-2.6a1.67,1.67,0,0,1,1.29-.61c.58,0,.74.39.74,1.27l0,2.19a1.8,1.8,0,0,0,0,.43Zm3.57-1a1.12,1.12,0,0,1-1,.44.66.66,0,0,1-.71-.61V177c0-.89,1.69-.91,1.7-.91l0,1.15Zm1,.38a3.13,3.13,0,0,1-.13-1l0-1.77c0-.92-.66-1.3-1.65-1.3-.7,0-1.46.3-1.46.84a.41.41,0,0,0,.43.42.64.64,0,0,0,.33-.1v-.09a.67.67,0,0,1,.69-.66c.74,0,.86.61.86,1.32l0,.56a4.08,4.08,0,0,0-.69-.09c-1,0-1.83.49-1.83,1.37a1.14,1.14,0,0,0,1.25,1.17,1.43,1.43,0,0,0,1.3-.89c0,.14.09.89.7.89a2,2,0,0,0,.82-.22v-.16a.73.73,0,0,1-.61-.33Zm2.56.59a1.85,1.85,0,0,1-.05-.38c-.05-1-.08-3.69,0-5,.07-1,.08-1.49-.54-1.49a1.41,1.41,0,0,0-.75.23v.17c.27,0,.43.31.43.82v5.66Zm6.8-3.51a.37.37,0,0,0,.29.13.44.44,0,0,0,.47-.41c0-.6-.75-.83-1.42-.83-1.29,0-2.15,1.07-2.15,2.58s.91,2.16,1.88,2.16,1.77-.56,1.77-1.27l0-.22a1.77,1.77,0,0,1-1.42.81c-.93,0-1.37-.91-1.37-1.78s.43-1.77,1.15-1.77c.56,0,.78.27.83.6Zm5.08.95v-.21a1.63,1.63,0,0,0-1.65-1.85c-1.16,0-1.91,1.11-1.91,2.58s.89,2.16,1.86,2.16,1.78-.56,1.78-1.27a.69.69,0,0,0-.05-.22,1.77,1.77,0,0,1-1.42.81c-.77,0-1.33-.56-1.33-1.55v-.36l2.19,0a.86.86,0,0,0,.53-.12Zm-1.78-1.55c.66,0,1,.66,1,1.24l-2,0C482.45,174.64,482.65,174.08,483.26,174.08Zm4.09,4.11a12.36,12.36,0,0,1-.1-1.93c0-.61.22-2,.92-2a.43.43,0,0,1,.43.3.38.38,0,0,0,.17,0,.45.45,0,0,0,.46-.47.55.55,0,0,0-.63-.55c-.82,0-1.38,1.12-1.4,1.19l0-.4a.55.55,0,0,0,0-.24c0-.3-.07-.53-.43-.53a1.61,1.61,0,0,0-.83.23V174c.07,0,.45,0,.45,1.11l0,3.1h.92ZM491,173h-.45c-.43.76-.84.74-.87.74l0,.28a.64.64,0,0,1,.41.32,1.46,1.46,0,0,1,.1.69l-.05,1.85c0,.92.18,1.48,1.22,1.48.66,0,1.21-.44,1.21-.82a.41.41,0,0,0-.07-.17,1.42,1.42,0,0,1-.84.25c-.66,0-.73-.43-.73-1v-2.31h.75c.38,0,.71-.16.71-.49l0-.17s-.05.1-.33.1h-1.11L491,173Zm3.41,5.23a3.82,3.82,0,0,1,0-.68c0-2.07,0-3.15,0-3.15,0-.43,0-.77-.46-.77a1.59,1.59,0,0,0-.81.23V174s.48,0,.45,1.11l-.08,3.07v0Zm-1-5.84a.51.51,0,0,0,.5.5.49.49,0,1,0-.51-.48Zm3.47,1.06v.1c0,.06,0,.16,0,.19h1c.29,0,.33-.1.33-.1v.17c0,.43-.39.49-.69.49h-.61v.58a22.48,22.48,0,0,0,.15,3.35h-.94v-.11l.05-2.38a4.19,4.19,0,0,0-.13-1.37c-.2-.3-.38-.33-.38-.33l0-.26a.59.59,0,0,0,.49-.56c.14-1.47.94-1.87,1.54-1.87.41,0,.89.17.89.59a.44.44,0,0,1-.64.35.46.46,0,0,0-.45-.38c-.48,0-.66.36-.64.91v.63Zm3.1,4.78a2.59,2.59,0,0,1-.06-.68c0-2.07.06-3.15.06-3.15,0-.43,0-.77-.46-.77a1.61,1.61,0,0,0-.83.23V174s.5,0,.45,1.11l-.07,3.07v0Zm-1-5.84a.49.49,0,1,0,.48-.48.49.49,0,0,0-.49.5Zm5,2.33a.46.46,0,0,0,.78-.28c0-.6-.75-.83-1.42-.83-1.29,0-2.15,1.07-2.15,2.58s.91,2.16,1.88,2.16,1.77-.56,1.77-1.27l0-.22a1.77,1.77,0,0,1-1.42.81c-.93,0-1.37-.91-1.37-1.78s.43-1.77,1.15-1.77c.55,0,.78.27.83.6Zm3.94,2.54a1.19,1.19,0,0,1-1,.44.65.65,0,0,1-.69-.67c0-.89,1.7-.91,1.7-.91l0,1.15Zm1,.38a3.13,3.13,0,0,1-.13-1l0-1.77c0-.92-.65-1.3-1.65-1.3-.7,0-1.46.3-1.46.84a.42.42,0,0,0,.43.42.64.64,0,0,0,.33-.1v-.09a.67.67,0,0,1,.69-.66c.74,0,.86.61.86,1.32v.56a4.63,4.63,0,0,0-.7-.09c-1,0-1.84.49-1.84,1.37a1.14,1.14,0,0,0,1.25,1.17,1.43,1.43,0,0,0,1.3-.89c0,.14.09.89.7.89a2.17,2.17,0,0,0,.84-.22v-.16A.73.73,0,0,1,508.93,177.6Zm2.51-4.64H511c-.42.76-.82.74-.87.74l0,.28s.19,0,.41.32a1.61,1.61,0,0,1,.1.69c0,.58-.07,1.35-.07,1.85,0,.92.2,1.48,1.22,1.48.66,0,1.21-.44,1.21-.82a.23.23,0,0,0-.05-.17,1.42,1.42,0,0,1-.84.25c-.66,0-.73-.43-.73-1v-2.31h.74c.38,0,.71-.16.71-.49v-.17s0,.1-.33.1h-1.11l.1-.74Zm3.43,5.23a2.59,2.59,0,0,1-.06-.68c0-2.07.06-3.15.06-3.15,0-.43,0-.77-.46-.77a1.61,1.61,0,0,0-.83.23V174s.5,0,.45,1.11l-.07,3.07v0Zm-1-5.84a.49.49,0,1,0,.48-.48.49.49,0,0,0-.49.5Zm2.21,3.68a2.3,2.3,0,0,1,2.26-2.46c1,0,1.93.73,1.93,2.28a2.34,2.34,0,0,1-2.24,2.47c-1.9,0-1.95-2.14-1.95-2.31Zm.91-.38c0,1.24.54,2.21,1.29,2.21.59,0,1.09-.69,1.09-1.71,0-1.21-.61-2.12-1.36-2.12s-1,.93-1,1.62Zm8.33,2.54a31.93,31.93,0,0,1-.1-3.53,1.11,1.11,0,0,0-1.09-1.09,2.06,2.06,0,0,0-1.74,1l.05-.25c0-.43,0-.77-.47-.77a1.54,1.54,0,0,0-.82.23V174s.49,0,.48,1.11l0,3.07v0h.92a2.48,2.48,0,0,1-.08-.68v-2.6a1.62,1.62,0,0,1,1.27-.61c.58,0,.74.39.74,1.27v2.62Zm4.54-.48c.17.38.83.6,1.49.6a2.28,2.28,0,0,0,2.14-2.51c0-1.55-.82-2.23-1.7-2.23a1.86,1.86,0,0,0-1.25.53,2.43,2.43,0,0,0,.05-.45l.06-1.51c0-.55-.11-.83-.58-.83a1.32,1.32,0,0,0-.74.23v.17c.27,0,.43.31.43.82v3.05a7.09,7.09,0,0,0,.1,2.13Zm1.45-3.53c.78,0,1.34.66,1.34,1.77,0,.71-.18,1.91-1.21,1.91-.64,0-.79-.3-.82-1s0-1.35,0-2.41v0A1.24,1.24,0,0,1,531.32,174.18Zm3,1.85a2.29,2.29,0,0,1,2.25-2.46c1,0,1.93.73,1.93,2.28a2.34,2.34,0,0,1-2.24,2.47c-1.9,0-1.95-2.14-1.95-2.31Zm.9-.38c0,1.24.54,2.21,1.28,2.21s1.09-.69,1.09-1.71c0-1.21-.61-2.12-1.35-2.12s-1,.93-1,1.62Zm8.69,2.28c-.39,0-.69-.12-.74-.89l0-2.61c0-1.19.06-1.72.06-2.29s-.11-.83-.58-.83a1.32,1.32,0,0,0-.74.23v.17c.27,0,.43.31.43.82v1.16a3.55,3.55,0,0,0-.79-.12,2.34,2.34,0,0,0-2.16,2.58c0,1.55.84,2.16,1.7,2.16a2.1,2.1,0,0,0,1.35-.63.67.67,0,0,0,.69.63,2.34,2.34,0,0,0,.83-.22v-.16Zm-2.37-.22c-.78,0-1.32-.59-1.32-1.71,0-.71.16-1.92,1.2-1.92a3.52,3.52,0,0,1,.91.12v3.22A1.26,1.26,0,0,1,541.59,177.71Zm3.91-3.53c-.09-.38-.22-.59-.65-.59a1.48,1.48,0,0,0-.76.23V174s.55.14.86,1.16l.83,2.56a.8.8,0,0,0,.51.49l-.12.2-.41,1a.89.89,0,0,1-.94.51c-.26,0-.59-.09-.66-.25v.2a.7.7,0,0,0,.76.77c.87,0,1.1-.64,1.45-1.48l1.86-4.46a2.34,2.34,0,0,0,.24-.79.28.28,0,0,0-.32-.31,1.06,1.06,0,0,0-.66.23V174a.38.38,0,0,1,.17.35,2,2,0,0,1-.13.58l-.73,1.9a6.13,6.13,0,0,0-.18.61,5.21,5.21,0,0,1-.25-.6,25.2,25.2,0,0,1-.87-2.64Zm8.41-14.78a2,2,0,0,1,1,.25,1.67,1.67,0,0,1,.72.72,1.9,1.9,0,0,1,.27,1,2,2,0,0,1-.27,1,1.68,1.68,0,0,1-.71.71,2,2,0,0,1-1,.26,2,2,0,0,1-1-.26,1.68,1.68,0,0,1-.71-.71,2,2,0,0,1-.27-1,2.05,2.05,0,0,1,.27-1,1.8,1.8,0,0,1,.72-.7,2,2,0,0,1,1-.25Zm0,.33a1.6,1.6,0,0,0-.79.2,1.38,1.38,0,0,0-.61.61,1.63,1.63,0,0,0-.22.8,1.7,1.7,0,0,0,.22.81,1.55,1.55,0,0,0,.59.6,1.75,1.75,0,0,0,.81.21,1.69,1.69,0,0,0,.81-.21,1.55,1.55,0,0,0,.59-.6,1.59,1.59,0,0,0,.22-.81,1.63,1.63,0,0,0-.22-.82,1.45,1.45,0,0,0-.61-.59,1.57,1.57,0,0,0-.79-.2Zm-.86,2.69v-2.1h.73a1.4,1.4,0,0,1,.53.07.46.46,0,0,1,.26.2.5.5,0,0,1,.1.31.56.56,0,0,1-.17.4.62.62,0,0,1-.42.18.41.41,0,0,1,.16.11,3.59,3.59,0,0,1,.33.41l.25.42h-.41l-.19-.33a2.14,2.14,0,0,0-.36-.5.43.43,0,0,0-.26-.06h-.2v.89h-.35Zm.33-1.17h.43a.67.67,0,0,0,.4-.1.33.33,0,0,0,.1-.23.37.37,0,0,0,0-.17.4.4,0,0,0-.15-.1.8.8,0,0,0-.33-.05h-.38v.65Z" transform="translate(-404.85 -129.47)"/></svg>