<svg xmlns="http://www.w3.org/2000/svg" viewBox="0 0 312.27 72.04">
    <defs>
        <style>.codeac{fill:#005096;}</style>
    </defs>
    <path d="M78.6,42.58A19.22,19.22,0,0,1,85.33,31a20.19,20.19,0,0,1,13-4.3c7,0,12.42,3.75,14.64,9.57L105,39.52c-1.11-3.05-4-5-7.77-5a9.42,9.42,0,0,0-6.52,2.64,11.8,11.8,0,0,0-3.6,6.31,13.36,13.36,0,0,0-.28,2.36C86.86,50.55,90,54,95,54a10.58,10.58,0,0,0,8.4-4.71l7.35,3.95c-3.61,5.48-9.5,8.67-16.72,8.67-9.36,0-15.81-6.45-15.81-15.4A18.87,18.87,0,0,1,78.6,42.58Z"/>
    <path d="M115.57,42.58a19.24,19.24,0,0,1,6.8-11.52,19.6,19.6,0,0,1,12.83-4.37C144.5,26.69,151,33.21,151,42a19,19,0,0,1-.35,3.75c-1.8,9.57-9.71,16.09-19.7,16.09-9.22,0-15.67-6.59-15.67-15.54A20,20,0,0,1,115.57,42.58Zm26.85.07c0-4.79-3.19-8.12-8.26-8.12a9.6,9.6,0,0,0-6.59,2.57,11,11,0,0,0-3.67,6.38,14,14,0,0,0-.21,2.36c0,4.78,3.19,8.11,8.18,8.11s9.3-3.88,10.34-9A13.94,13.94,0,0,0,142.42,42.65Z"/>
    <path d="M155.8,42.58A19.84,19.84,0,0,1,162.25,31a18.24,18.24,0,0,1,12.21-4.3c4.51,0,8.6,1.53,10.82,3.75l3.95-20.26h8.47l-9.85,50.64h-8.47l.42-2.15a15,15,0,0,1-9.43,3.19c-8.54,0-15-6.8-15-15.47A18.07,18.07,0,0,1,155.8,42.58Zm26.84.07c0-4.79-3.19-8.12-8.25-8.12a9.65,9.65,0,0,0-6.66,2.57,11.17,11.17,0,0,0-3.61,6.38,13.93,13.93,0,0,0-.2,2.36c0,4.78,3.19,8.11,8.18,8.11s9.29-3.88,10.34-9A15,15,0,0,0,182.64,42.65Z"/>
    <path d="M230.15,47.36H206.22c.21,4.09,2.29,6.73,6.66,6.73a10.5,10.5,0,0,0,8.53-4.72l7,4c-3.4,5.48-9.57,8.46-16.16,8.46-8.6,0-14.64-7-14.64-15.33A23.19,23.19,0,0,1,198,43c1.8-9.64,9.29-16.3,18.87-16.3,8.67,0,14.35,6.59,14.35,14.64A18.22,18.22,0,0,1,230.15,47.36Zm-7.28-6.93a6,6,0,0,0-6.45-6,9.16,9.16,0,0,0-8.88,6Z"/>
    <path d="M235.77,42.58A19.84,19.84,0,0,1,242.22,31a18.24,18.24,0,0,1,12.21-4.3,17.6,17.6,0,0,1,10.82,3.75l.55-2.71h8.47l-6.46,33.09h-8.46l.42-2.15a15,15,0,0,1-9.43,3.19c-8.54,0-15-6.8-15-15.47A18.07,18.07,0,0,1,235.77,42.58Zm26.84.07c0-4.79-3.19-8.12-8.25-8.12a9.6,9.6,0,0,0-6.59,2.57,11.1,11.1,0,0,0-3.68,6.38,14,14,0,0,0-.21,2.36c0,4.78,3.2,8.11,8.19,8.11s9.29-3.88,10.33-9A13.94,13.94,0,0,0,262.61,42.65Z"/>
    <path d="M277.94,42.58A19.12,19.12,0,0,1,284.67,31a20.15,20.15,0,0,1,13-4.3c7,0,12.41,3.75,14.63,9.57l-7.9,3.26c-1.11-3.05-4-5-7.77-5a9.39,9.39,0,0,0-6.52,2.64,11.75,11.75,0,0,0-3.61,6.31,13.36,13.36,0,0,0-.28,2.36c0,4.71,3.12,8.11,8.12,8.11a10.57,10.57,0,0,0,8.39-4.71l7.35,3.95c-3.6,5.48-9.5,8.67-16.71,8.67-9.37,0-15.82-6.45-15.82-15.4A18.22,18.22,0,0,1,277.94,42.58Z"/>
    <polygon class="codeac" points="46.68 11.01 46.68 17.68 49.81 19.14 49.81 7.61 42.51 11.01 46.68 11.01"/>
    <path class="codeac" d="M68.71,21.23,56.24,9.61V7.2L49.05,0,43.27,2.71l-.09,0-1,2.05L32.5,4.73,23,.33H17.84l-2.33,5v9.61l-3,3-2.65-.27v4.71L0,27v7.53l2.52,5.39,2.1.21,2.56,5.47,5.67.49L18,51.19l2.1,2.09L38.94,72h9.39L78.19,21.23ZM18.81,6,20,3.39H23.7L29.15,6,22.69,9,21,5.33H19.76v5.35l-1,1ZM41.53,57.88,33.68,50H21.24l-6.77-6.91-5.29-.45-1-2.24H18.85L24.27,35,17,38.39,4.59,37.1,3.06,33.81V30.52L6,30.83l1,2.42H7l1.08,2.52,5.17-5.17L9.15,31,8.05,28.3,5,28,17.42,22.2l.68.07,2.73,5.85,9.13.8L34,20.14l-4-.4-2.64,5.64V19.47l-11-1.16,5.73-5.72L32.49,7.78l8.32.06L38.37,13.1h2.2L44,5.73l4.39-2.05,4.8,4.79v12l3.05,1.42v-8l11.09,9.35Z"/>
</svg>