<svg xmlns="http://www.w3.org/2000/svg" width="70" height="40"><path fill="#191919" fill-rule="evenodd" d="M8.26 0h4.3c-2.2 2.2-4.1 4.54-5.74 7l1.44-7zm2.04 14.6c1.76-3.9 4.34-7.54 7.67-10.84A37.86 37.86 0 0 1 22.37 0h6.8c-.2.1-.42.2-.64.3-2.95 1.44-5.65 3.37-8.04 5.73-2.52 2.5-4.53 5.22-5.98 8.1-1.4 2.8-2.26 5.68-2.54 8.56-.55 5.8 1.34 11.18 5.32 15.13A16.02 16.02 0 0 0 20.02 40h-7.04a20.3 20.3 0 0 1-3.7-5.96c-1.02-2.54-1.53-5.28-1.53-8.15 0-3.75.86-7.54 2.55-11.3zm9-5.3a32.5 32.5 0 0 1 2.13-2.33c3.4-3.37 7.36-5.7 11.4-6.97h3.75l-.44 2.1c-4.65.67-9.2 3-12.84 6.63-.2.2-.38.38-.56.57H19.3zm21.45 16.66c-1.34 1.34-2.9 2.3-4.47 2.9l.43-2.1a10.03 10.03 0 0 0 3.1-2.1c1.5-1.46 2.4-3.3 2.54-5.15.15-1.86-.45-3.57-1.7-4.82a5.4 5.4 0 0 0-1.24-.9l.46-2.25c.9.34 1.72.85 2.4 1.53 1.44 1.43 2.2 3.23 2.2 5.22 0 2.58-1.32 5.3-3.7 7.68zm5.04-7.68c0-2.35-.9-4.47-2.6-6.15a8.07 8.07 0 0 0-3.08-1.9l.53-2.54c1.7.4 3.2 1.24 4.4 2.45 4.66 4.6 3.78 12.43-2.03 18.2-2.24 2.2-4.88 3.75-7.56 4.46l.5-2.45c2.1-.62 4.07-1.8 5.73-3.45 2.64-2.62 4.1-5.7 4.1-8.62zM41 19.4c-.1 1.55-.87 3.1-2.13 4.34a8.64 8.64 0 0 1-1.82 1.37l2.06-9.95c.22.14.4.3.6.47.96.97 1.43 2.3 1.32 3.8zM2.34 37.07A25.56 25.56 0 0 0 3.73 40H0l1.27-6.14a25.96 25.96 0 0 0 1.05 3.2zM6.4 25.9c0 3.03.56 5.94 1.64 8.62a21.6 21.6 0 0 0 3.2 5.48H5.27a24.56 24.56 0 0 1-1.7-3.43 25.3 25.3 0 0 1-1.6-6.08L6 10.9C8 7.24 10.6 3.8 13.78.66c.23-.23.46-.45.7-.67h5.72a39.3 39.3 0 0 0-3.17 2.82c-3.45 3.42-6.12 7.2-7.95 11.25-1.77 3.9-2.67 7.9-2.67 11.82zm11.26-2.02c0-3 .85-6.02 2.46-8.87h2.86c-1.53 2.54-2.37 5.33-2.37 8.06 0 .47.04.93.1 1.38h-3.03a15.25 15.25 0 0 1-.02-.56zM31.18 15a9.93 9.93 0 0 0-.82.73c-1.78 1.77-2.76 3.9-2.76 6 0 .98.22 1.9.62 2.7h-2.37a7.83 7.83 0 0 1-.28-2.1c0-2.5 1.14-5.14 3.14-7.32h2.48zm-9.23 8.06c0-2.73.92-5.54 2.6-8.05h2.42a13.5 13.5 0 0 0-1.73 2.85c-.67 1.48-1 3-1 4.5 0 .7.07 1.42.23 2.1h-2.44c-.05-.46-.08-.92-.08-1.4zm22 6.22c6.36-6.3 7.24-14.93 2.06-20.07-1.4-1.38-3.13-2.33-5.08-2.8l.6-2.94c2.63.46 5.03 1.6 6.92 3.48 2.53 2.5 3.9 5.6 4.02 9.06a15.75 15.75 0 0 1-.16 2.8c-.62 4.24-2.93 8.52-6.5 12.05-3.12 3.1-7.14 5.25-11.18 6.04l.55-2.66c3.12-.68 6.2-2.4 8.8-4.96zM49.4 6c-1.6-1.57-3.52-2.72-5.73-3.4a15.63 15.63 0 0 0-1.86-.44L42.23 0h3.9a15.63 15.63 0 0 1 5.68 3.58c1.68 1.68 2.96 3.6 3.8 5.72h-1.78l-.63 3.04-.05-.2c-.7-2.3-1.97-4.35-3.77-6.14zm7.67 3.3c-.9-2.5-2.34-4.73-4.3-6.66A16.5 16.5 0 0 0 49.28 0h7.28a20.82 20.82 0 0 1 5.04 9.3h-4.55zM35.3 6.25c-2.47.45-4.87 1.5-7.03 3.04h-3.64c3.34-3.18 7.33-5.14 11.23-5.8l-.58 2.76zm-.3 1.4l-.34 1.64h-3.92A15.73 15.73 0 0 1 35 7.67zM13.3 22.82c.44-4.45 2.4-8.97 5.6-13L17.8 15h.8c-1.5 2.87-2.3 5.9-2.3 8.88 0 .2 0 .37 0 .56h-.46l-1.22 6.07h3.17a13.95 13.95 0 0 0 2.74 3.84c2.2 2.18 4.96 3.54 8.1 4.02L28.3 40h-5.46a15.08 15.08 0 0 1-4.6-3.1c-3.7-3.67-5.44-8.67-4.93-14.1zm16.98 7.72l-.5 2.45a10.25 10.25 0 0 1-4.68-2.46h5.2l-.02.02zm-.8 3.75l-.57 2.8c-2.88-.44-5.4-1.68-7.4-3.67a12.66 12.66 0 0 1-2.2-2.9h3.95c.2.23.4.44.6.65 1.6 1.6 3.5 2.64 5.64 3.12zM47.5 40h-5.64a28.87 28.87 0 0 0 6.55-4.42L47.5 40zm9.3-23.48c-.03.52-.07 1.05-.13 1.58-.33 2.64-1.17 5.3-2.48 7.85h-3c1.25-2.25 2.07-4.6 2.42-6.97.12-.83.18-1.65.18-2.46h3zM64.62 0a25.13 25.13 0 0 1 1.63 3.34 26.2 26.2 0 0 1 1.58 5.96h-4.86A22.14 22.14 0 0 0 58.33 0h6.3zm1.53 0H70l-1.34 6.52A26.7 26.7 0 0 0 66.16 0zM62.2 16.52c-.03.3-.06.6-.1.9-.3 2.88-1.08 5.75-2.3 8.53h-4.12c1.2-2.5 2-5.1 2.3-7.7.08-.57.13-1.15.16-1.73h4.05zm1.24 1.05c.03-.35.06-.7.1-1.05h2.7l-1.9 9.44h-3.1c1.15-2.75 1.9-5.57 2.2-8.4zm-29.1 20.7c4.48-.74 8.96-3.05 12.42-6.5A26.6 26.6 0 0 0 50 27.9l-1.1 5.38c-.15.14-.3.28-.43.42a27.4 27.4 0 0 1-10 6.3h-4.5l.36-1.72zm-3.04-21.6a8.46 8.46 0 0 1 1.75-1.34l-1.85 9.1h-1.43c-.55-.75-.83-1.67-.83-2.7 0-1.75.83-3.55 2.36-5.06z"/></svg>