<svg class="d-inline-block align-top navbar-logo" width="112px" height="31px" viewBox="0 0 200 55" fill="#fff" xmlns="http://www.w3.org/2000/svg">
  <path fill-rule="evenodd" clip-rule="evenodd" d="M160.155 53.2262C156.945 54.409 153.65 54.9159 149.088 54.9159C138.105 54.9159 136.415 50.9451 136.415 38.8636V19.2629H129.91V11.8281H136.584V1.68979L146.722 7.20363e-05V11.8281H160.155V19.2629H146.722V36.329C146.722 46.0449 146.722 48.326 155.34 48.326C156.504 48.326 157.855 48.2634 159.395 48.192C159.644 48.1805 159.897 48.1688 160.155 48.157V53.2262ZM189.692 54.3826H199.999V2.0008H189.692V54.3826ZM125.519 40.6963C125.519 50.2432 115.55 54.383 100.68 54.383C94.1753 54.383 85.0508 53.1157 78.0385 51.088V42.4705C85.1353 45.174 91.5563 46.6103 98.991 46.6103C110.312 46.6103 115.212 45.343 115.212 41.1187C115.212 37.4893 108.678 36.9428 100.957 36.297C89.807 35.3644 76.1798 34.2246 76.1798 23.2922C76.1798 13.9987 86.1492 9.43647 101.018 9.43647C106.087 9.43647 114.789 10.3658 122.14 11.8021V19.7437C116.141 18.4765 108.199 17.2092 101.863 17.2092C91.1338 17.2092 86.4871 18.9834 86.4871 22.5318C86.4871 26.3463 93.184 26.9572 101.029 27.673C112.125 28.6853 125.519 29.9073 125.519 40.6963ZM21.4253 54.3824H31.7326V43.5682C31.7326 28.1918 37.8156 18.5604 47.7004 18.5604C56.318 18.5604 59.9509 24.221 59.9509 37.4852V54.3824H70.2582V36.049C70.2582 18.5604 64.4286 10.9567 52.4316 10.7877C39.9277 10.7877 33.5068 19.2363 31.8171 29.5436H31.2257L32.9154 12.1395H21.4253V54.3824ZM-2.80317e-05 54.3824V12.1395V2.0008H10.2314C9.82218 4.41636 6.52049 10.0787 0.921173 11.5756V12.1395L10.3073 12.146V54.3826L-2.80317e-05 54.3824ZM169.232 12.1395L178.618 12.146V54.3824L168.311 54.3826V12.1395V2.0008H178.542C178.133 4.41636 174.831 10.0787 169.232 11.5756V12.1395Z"></path>
</svg>