<svg fill="none" height="426" viewBox="0 0 1777 426" width="1777" xmlns="http://www.w3.org/2000/svg" xmlns:xlink="http://www.w3.org/1999/xlink"><radialGradient id="a" cx="218.042" cy="206.55" gradientUnits="userSpaceOnUse" r="379.8"><stop offset=".07" stop-color="#1b58f4"/><stop offset=".71" stop-color="#74ffe6"/></radialGradient><linearGradient id="b" gradientUnits="userSpaceOnUse" x1="467.552" x2="137.292" y1="-36.99" y2="285.12"><stop offset=".32" stop-color="#4979f6"/><stop offset=".99" stop-color="#4d33bd"/></linearGradient><linearGradient id="c"><stop offset=".22" stop-color="#4d29b4"/><stop offset=".36" stop-color="#4c33bc"/><stop offset=".58" stop-color="#4b4ed2"/><stop offset=".87" stop-color="#4979f6"/></linearGradient><linearGradient id="d" gradientUnits="userSpaceOnUse" x1="155.953" x2="21.3925" xlink:href="#c" y1="89.2501" y2="223.82"/><linearGradient id="e" gradientUnits="userSpaceOnUse" x1="332.522" x2="210.622" xlink:href="#c" y1="273.27" y2="395.17"/><g fill="#fff"><path d="m558.112 249.25h54.4v26.25h-87.51v-165.08h33.11z"/><path d="m650.583 269.24c-10.09-5.59-18.01-13.52-23.77-23.77s-8.63-22.07-8.63-35.48 2.96-25.22 8.87-35.47 13.99-18.17 24.24-23.77c10.25-5.59 21.68-8.4 34.29-8.4s24.04 2.8 34.29 8.4 18.33 13.52 24.24 23.77 8.87 22.08 8.87 35.47-3.04 25.23-9.11 35.48-14.27 18.17-24.6 23.77-21.88 8.4-34.65 8.4-23.97-2.8-34.06-8.4zm50.97-24.84c5.28-2.92 9.5-7.29 12.65-13.13 3.15-5.83 4.73-12.93 4.73-21.29 0-12.45-3.27-22.03-9.81-28.73s-14.54-10.05-24-10.05-17.38 3.35-23.77 10.05-9.58 16.28-9.58 28.73 3.11 22.04 9.34 28.74 14.07 10.05 23.53 10.05c5.99 0 11.63-1.46 16.91-4.38z"/><path d="m774.742 174.4c5.52-10.17 13.16-18.05 22.94-23.65 9.77-5.59 20.97-8.4 33.58-8.4 16.24 0 29.68 4.06 40.32 12.18s17.77 19.51 21.4 34.17h-35.71c-1.89-5.68-5.08-10.13-9.58-13.36-4.49-3.23-10.05-4.85-16.67-4.85-9.46 0-16.95 3.43-22.47 10.29s-8.28 16.59-8.28 29.21 2.76 22.11 8.28 28.97 13.01 10.29 22.47 10.29c13.4 0 22.15-5.99 26.25-17.97h35.71c-3.63 14.19-10.8 25.46-21.52 33.82s-24.12 12.54-40.21 12.54c-12.62 0-23.81-2.8-33.58-8.4-9.78-5.59-17.42-13.48-22.94-23.65s-8.28-22.03-8.28-35.59 2.76-25.42 8.28-35.59z"/><path d="m909.662 174.28c5.28-10.25 12.45-18.13 21.52-23.65 9.06-5.52 19.19-8.28 30.39-8.28 9.77 0 18.33 1.97 25.66 5.91s13.198 8.91 17.618 14.9v-18.68h33.35v131.02h-33.35v-19.16c-4.26 6.15-10.128 11.23-17.618 15.25s-16.12 6.03-25.9 6.03c-11.04 0-21.09-2.84-30.15-8.51-9.07-5.68-16.24-13.68-21.52-24s-7.92-22.19-7.92-35.59 2.64-24.99 7.92-35.24zm90.458 15.02c-3.158-5.75-7.408-10.17-12.768-13.24s-11.12-4.61-17.26-4.61-11.83 1.5-17.03 4.49c-5.2 3-9.42 7.37-12.65 13.13s-4.85 12.58-4.85 20.46 1.62 14.78 4.85 20.69 7.49 10.45 12.77 13.6c5.28 3.16 10.92 4.73 16.91 4.73s11.9-1.54 17.26-4.61c5.36-3.08 9.61-7.49 12.768-13.24 3.15-5.75 4.73-12.65 4.73-20.69s-1.58-14.94-4.73-20.69z"/><path d="m1101.34 100.49v175.01h-33.11v-175.01z"/><path d="m1157.51 271.25c-9.22-3.94-16.52-9.62-21.88-17.03s-8.12-16.16-8.28-26.25h35.47c.47 6.78 2.88 12.14 7.21 16.08s10.29 5.91 17.86 5.91 13.79-1.85 18.21-5.56c4.41-3.7 6.62-8.55 6.62-14.54 0-4.88-1.5-8.91-4.49-12.06-3-3.15-6.74-5.64-11.23-7.45s-10.68-3.82-18.57-6.03c-10.72-3.15-19.43-6.27-26.13-9.34s-12.46-7.72-17.26-13.95c-4.81-6.23-7.21-14.54-7.21-24.95 0-9.77 2.44-18.29 7.33-25.54 4.88-7.25 11.74-12.81 20.58-16.67 8.83-3.86 18.92-5.79 30.27-5.79 17.03 0 30.86 4.14 41.51 12.42 10.64 8.28 16.51 19.83 17.62 34.65h-36.42c-.32-5.68-2.72-10.37-7.21-14.07s-10.45-5.56-17.86-5.56c-6.47 0-11.63 1.66-15.49 4.97-3.87 3.31-5.79 8.12-5.79 14.43 0 4.42 1.46 8.08 4.38 11s6.54 5.29 10.88 7.1c4.33 1.81 10.44 3.9 18.33 6.27 10.72 3.16 19.47 6.31 26.25 9.46 6.78 3.16 12.61 7.89 17.5 14.19 4.88 6.31 7.33 14.58 7.33 24.83 0 8.83-2.29 17.03-6.86 24.6-4.58 7.57-11.27 13.6-20.1 18.09s-19.32 6.74-31.45 6.74c-11.51 0-21.88-1.97-31.1-5.91z"/><path d="m1311.83 171.68v63.38c0 4.42 1.06 7.61 3.19 9.58s5.71 2.96 10.76 2.96h15.37v27.91h-20.81c-27.91 0-41.86-13.56-41.86-40.68v-63.15h-15.61v-27.2h15.61v-32.4h33.35v32.4h29.33v27.2z"/><path d="m1362.08 174.28c5.28-10.25 12.45-18.13 21.52-23.65 9.06-5.52 19.19-8.28 30.39-8.28 9.77 0 18.33 1.97 25.66 5.91s13.2 8.91 17.62 14.9v-18.68h33.35v131.02h-33.35v-19.16c-4.26 6.15-10.13 11.23-17.62 15.25s-16.12 6.03-25.9 6.03c-11.04 0-21.09-2.84-30.15-8.51-9.07-5.68-16.24-13.68-21.52-24s-7.92-22.19-7.92-35.59 2.64-24.99 7.92-35.24zm90.46 15.02c-3.16-5.75-7.41-10.17-12.77-13.24s-11.12-4.61-17.26-4.61-11.83 1.5-17.03 4.49c-5.2 3-9.42 7.37-12.65 13.13s-4.85 12.58-4.85 20.46 1.62 14.78 4.85 20.69 7.49 10.45 12.77 13.6c5.28 3.16 10.92 4.73 16.91 4.73s11.9-1.54 17.26-4.61c5.36-3.08 9.61-7.49 12.77-13.24 3.15-5.75 4.73-12.65 4.73-20.69s-1.58-14.94-4.73-20.69z"/><path d="m1520.42 174.4c5.52-10.17 13.16-18.05 22.94-23.65 9.77-5.59 20.97-8.4 33.58-8.4 16.24 0 29.68 4.06 40.32 12.18s17.77 19.51 21.4 34.17h-35.71c-1.89-5.68-5.08-10.13-9.58-13.36-4.49-3.23-10.05-4.85-16.67-4.85-9.46 0-16.95 3.43-22.47 10.29s-8.28 16.59-8.28 29.21 2.76 22.11 8.28 28.97 13.01 10.29 22.47 10.29c13.4 0 22.15-5.99 26.25-17.97h35.71c-3.63 14.19-10.8 25.46-21.52 33.82s-24.12 12.54-40.21 12.54c-12.62 0-23.81-2.8-33.58-8.4-9.78-5.59-17.42-13.48-22.94-23.65s-8.28-22.03-8.28-35.59 2.76-25.42 8.28-35.59z"/><path d="m1733.5 275.5-44.46-55.81v55.81h-33.11v-175.01h33.11v99.57l43.99-55.58h43.04l-57.71 65.75 58.18 65.27z"/></g><path d="m419.002.5h-163c-3.314 0-6 2.68629-6 6v163c0 3.314 2.686 6 6 6h163c3.314 0 6-2.686 6-6v-163c0-3.31371-2.686-6-6-6z" fill="url(#a)"/><path d="m156.002 275.5h213c3.31 0 6-2.69 6-6v-63c0-3.31-2.69-6-6-6h-138c-3.31 0-6-2.69-6-6v-138c0-3.31-2.69-6-6-6h-63c-3.31 0-6 2.69-6 6v213c0 3.31 2.69 6 6 6z" fill="url(#b)"/><path clip-rule="evenodd" d="m125.003 68.3101v114.3899c0 2.93-2.37 5.3-5.3 5.3h-114.39047c-4.719999 0-7.09-5.71-3.75-9.05l114.39047-114.3899c3.34-3.34 9.05-.97 9.05 3.75z" fill="url(#d)" fill-rule="evenodd"/><path clip-rule="evenodd" d="m237.502 420.19v-114.39c0-2.93 2.37-5.3 5.3-5.3h114.39c4.72 0 7.09 5.71 3.75 9.05l-114.39 114.39c-3.34 3.34-9.05.97-9.05-3.75z" fill="url(#e)" fill-rule="evenodd"/></svg>