<svg xmlns="http://www.w3.org/2000/svg" width="606" height="104" fill="none"><path fill="#000" fill-rule="evenodd" d="M89.835 33.447c.203-2.955-1.536-5.666-4.208-6.945L52.034 10.426a16.03 16.03 0 0 0-13.84 0L4.6 26.502c-2.672 1.28-4.41 3.99-4.207 6.945 2.455 35.782 31.582 55.84 41.465 61.65a6.358 6.358 0 0 0 6.512 0c9.882-5.81 39.01-25.868 41.465-61.65ZM45.114 68.672c10.27 0 18.596-8.326 18.596-18.596s-8.326-18.595-18.596-18.595-18.596 8.325-18.596 18.595 8.326 18.596 18.596 18.596Z" clip-rule="evenodd"/><path fill="#000" d="M142.835 82.123c-4.146 0-7.831-.662-11.056-1.987-3.167-1.382-5.873-3.34-8.119-5.873-2.188-2.534-3.858-5.614-5.009-9.242-1.094-3.627-1.641-7.716-1.641-12.265 0-6.68 1.122-12.207 3.368-16.583 2.246-4.434 5.326-7.745 9.242-9.933 3.915-2.246 8.378-3.369 13.388-3.369 3.915 0 7.456.663 10.623 1.987a20.838 20.838 0 0 1 8.119 5.787c2.304 2.534 4.06 5.672 5.269 9.415 1.209 3.685 1.814 7.888 1.814 12.61 0 4.606-.576 8.752-1.727 12.438-1.152 3.627-2.851 6.708-5.096 9.241-2.246 2.534-4.981 4.463-8.206 5.787-3.167 1.325-6.823 1.987-10.969 1.987Zm.173-7.86c3.455 0 6.391-.835 8.81-2.505 2.418-1.67 4.261-4.06 5.527-7.169 1.267-3.167 1.901-7.025 1.901-11.574 0-4.664-.663-8.637-1.987-11.919-1.267-3.282-3.138-5.787-5.614-7.514-2.419-1.785-5.355-2.678-8.81-2.678-3.34 0-6.248.864-8.724 2.591-2.418 1.67-4.29 4.117-5.614 7.342-1.267 3.224-1.9 7.198-1.9 11.92 0 3.454.374 6.535 1.123 9.241.748 2.649 1.814 4.895 3.196 6.737a14.212 14.212 0 0 0 5.096 4.146c2.072.921 4.404 1.382 6.996 1.382Zm49.473 7.86c-5.067 0-8.896-1.728-11.487-5.183-2.591-3.512-3.887-8.78-3.887-15.806V36.086h9.415v24.012c0 4.722.72 8.234 2.159 10.537 1.44 2.304 3.714 3.455 6.823 3.455 1.728 0 3.254-.432 4.578-1.295 1.325-.864 2.476-2.073 3.455-3.628 1.037-1.555 1.843-3.368 2.419-5.442.633-2.13 1.065-4.462 1.295-6.996V36.086h9.328V81h-7.946l.432-14.251h-1.468c-.749 3.57-1.814 6.506-3.196 8.81-1.325 2.245-2.994 3.915-5.01 5.01-1.958 1.036-4.261 1.554-6.91 1.554ZM226.912 81V36.086h8.119l-.432 15.547h1.469c.518-3.512 1.324-6.506 2.418-8.982 1.094-2.476 2.591-4.348 4.492-5.615 1.9-1.324 4.261-1.986 7.082-1.986.576 0 1.209.029 1.9.086.691.058 1.469.23 2.332.518l-.432 9.847a10.773 10.773 0 0 0-2.677-.691c-.921-.173-1.756-.26-2.505-.26-2.303 0-4.261.663-5.873 1.987-1.612 1.267-2.966 3.052-4.06 5.355-1.036 2.246-1.842 4.866-2.418 7.86V81h-9.415Zm49.853 1.123c-3.11 0-5.874-.317-8.292-.95-2.419-.634-4.491-1.526-6.219-2.678-1.67-1.209-2.965-2.648-3.887-4.318a13.62 13.62 0 0 1-1.641-5.442l7.601-2.505c0 1.67.518 3.167 1.555 4.492 1.036 1.324 2.505 2.36 4.405 3.11 1.957.69 4.29 1.036 6.996 1.036 3.167 0 5.614-.519 7.342-1.555 1.727-1.037 2.591-2.476 2.591-4.319 0-1.382-.49-2.476-1.469-3.282-.921-.806-2.274-1.468-4.059-1.987-1.728-.518-3.772-1.007-6.133-1.468a128.85 128.85 0 0 1-6.391-1.554 30.58 30.58 0 0 1-5.787-2.419c-1.728-.979-3.138-2.246-4.232-3.8-1.037-1.613-1.555-3.628-1.555-6.046 0-2.764.72-5.125 2.159-7.083 1.44-2.015 3.513-3.57 6.219-4.664 2.764-1.152 6.046-1.727 9.847-1.727 3.685 0 6.852.547 9.5 1.64 2.707 1.095 4.866 2.62 6.478 4.578 1.613 1.958 2.592 4.261 2.937 6.91l-7.946 2.332c-.115-1.785-.662-3.282-1.641-4.491-.922-1.21-2.188-2.102-3.801-2.678-1.612-.633-3.512-.95-5.7-.95-2.879 0-5.154.518-6.824 1.555-1.612 1.036-2.418 2.447-2.418 4.232 0 1.382.489 2.505 1.468 3.369 1.037.806 2.419 1.468 4.146 1.986 1.785.46 3.801.921 6.046 1.382 2.303.46 4.52.98 6.651 1.555 2.13.576 4.031 1.353 5.7 2.332 1.728.921 3.081 2.188 4.06 3.8 1.036 1.555 1.555 3.542 1.555 5.96 0 2.937-.806 5.442-2.419 7.514-1.554 2.016-3.771 3.542-6.65 4.578-2.88 1.037-6.277 1.555-10.192 1.555Zm51.499-18.138v-7.688h13.733c5.01 0 8.753-.978 11.229-2.936 2.533-1.958 3.8-5.182 3.8-9.674 0-4.03-1.18-7.054-3.541-9.069-2.303-2.015-5.873-3.023-10.71-3.023h-14.511v-7.6h14.683c3.743 0 7.054.431 9.933 1.295 2.937.864 5.413 2.13 7.428 3.8 2.073 1.67 3.628 3.772 4.664 6.305 1.094 2.476 1.641 5.355 1.641 8.638 0 4.318-.978 7.975-2.936 10.969-1.958 2.937-4.866 5.182-8.724 6.737-3.8 1.497-8.522 2.246-14.165 2.246h-12.524ZM322.564 81V23.994h9.414V81h-9.414Zm50.871 0V36.086h8.119l-.432 15.547h1.468c.519-3.512 1.325-6.506 2.419-8.982 1.094-2.476 2.591-4.348 4.491-5.615 1.9-1.324 4.261-1.986 7.083-1.986.575 0 1.209.029 1.9.086.691.058 1.468.23 2.332.518l-.432 9.847a10.78 10.78 0 0 0-2.678-.691c-.921-.173-1.756-.26-2.504-.26-2.304 0-4.261.663-5.874 1.987-1.612 1.267-2.965 3.052-4.059 5.355-1.037 2.246-1.843 4.866-2.419 7.86V81h-9.414Zm32.919 0V36.086h9.328V81h-9.328Zm4.664-52.428c-2.015 0-3.541-.403-4.577-1.21-1.037-.863-1.555-2.13-1.555-3.8 0-1.612.518-2.85 1.555-3.714 1.036-.863 2.562-1.295 4.577-1.295 2.073 0 3.628.432 4.664 1.295 1.037.864 1.555 2.102 1.555 3.714 0 1.67-.518 2.937-1.555 3.8-1.036.807-2.591 1.21-4.664 1.21ZM436.739 81l-15.72-44.827h10.451l11.229 37.14h1.295l11.315-37.14h10.106L449.695 81h-12.956Zm43.372 1.123c-2.476 0-4.693-.46-6.65-1.382-1.958-.979-3.513-2.418-4.664-4.319-1.094-1.9-1.641-4.26-1.641-7.082 0-2.246.403-4.175 1.209-5.787.863-1.67 2.13-3.052 3.8-4.146 1.728-1.152 3.916-2.073 6.564-2.764 2.649-.749 5.787-1.382 9.415-1.9 2.015-.288 3.656-.576 4.923-.864 1.325-.288 2.275-.748 2.851-1.382.633-.633.95-1.583.95-2.85 0-1.958-.691-3.628-2.073-5.01-1.325-1.44-3.484-2.16-6.478-2.16-1.67 0-3.34.289-5.01.865-1.612.575-3.023 1.526-4.232 2.85-1.152 1.267-1.929 2.994-2.332 5.182l-8.465-2.677c.519-2.188 1.354-4.117 2.505-5.787a15.42 15.42 0 0 1 4.319-4.319c1.727-1.209 3.714-2.102 5.959-2.677 2.304-.634 4.809-.95 7.515-.95 3.973 0 7.255.662 9.846 1.986 2.591 1.325 4.52 3.369 5.787 6.133 1.325 2.706 1.987 6.19 1.987 10.45v9.156c0 1.9.029 3.916.086 6.046.115 2.073.231 4.175.346 6.305.172 2.073.374 4.06.604 5.96h-8.551a955.411 955.411 0 0 1-.518-5.355c-.115-1.843-.23-3.714-.345-5.614h-1.296a21.1 21.1 0 0 1-3.455 6.046c-1.439 1.842-3.253 3.31-5.441 4.405-2.131 1.094-4.636 1.64-7.515 1.64Zm3.283-7.255a11.41 11.41 0 0 0 3.627-.605c1.267-.403 2.505-1.008 3.714-1.814 1.267-.864 2.419-1.958 3.455-3.282 1.094-1.324 2.044-2.908 2.85-4.75l-.086-8.12 2.246.432c-.979.864-2.217 1.526-3.714 1.987a34 34 0 0 1-4.751 1.123 80.98 80.98 0 0 0-5.182.864 23.07 23.07 0 0 0-4.664 1.295c-1.382.518-2.505 1.267-3.369 2.246-.806.979-1.209 2.332-1.209 4.06 0 2.13.662 3.77 1.987 4.922 1.324 1.094 3.023 1.642 5.096 1.642Zm52.461 7.255c-3.858 0-7.198-.605-10.02-1.814-2.764-1.21-5.038-2.88-6.823-5.01-1.785-2.13-3.109-4.577-3.973-7.341-.864-2.764-1.296-5.73-1.296-8.897 0-3.397.461-6.535 1.382-9.414.922-2.937 2.275-5.5 4.06-7.687 1.842-2.246 4.117-3.973 6.823-5.183 2.706-1.209 5.845-1.813 9.415-1.813 3.512 0 6.564.604 9.155 1.813 2.649 1.152 4.808 2.822 6.478 5.01 1.67 2.13 2.764 4.635 3.282 7.514l-8.81 2.678a11.952 11.952 0 0 0-1.468-4.664c-.806-1.44-1.958-2.563-3.455-3.369-1.497-.863-3.311-1.295-5.441-1.295-2.016 0-3.772.403-5.269 1.209-1.497.748-2.735 1.871-3.714 3.368-.979 1.44-1.728 3.139-2.246 5.096-.46 1.958-.691 4.117-.691 6.478 0 3.225.432 6.046 1.296 8.465.921 2.36 2.332 4.203 4.232 5.528 1.9 1.266 4.29 1.9 7.169 1.9 2.418 0 4.405-.432 5.96-1.296 1.554-.864 2.764-2.015 3.627-3.455.864-1.497 1.44-3.224 1.728-5.182l8.378 1.987c-.346 2.36-1.037 4.52-2.073 6.478a15.705 15.705 0 0 1-4.06 4.836c-1.669 1.325-3.656 2.332-5.959 3.023-2.246.691-4.808 1.037-7.687 1.037ZM577.554 96.2c-2.304 0-4.636-.259-6.997-.777-2.303-.46-4.433-1.209-6.391-2.246-1.958-.978-3.599-2.274-4.923-3.886l3.8-7.428c1.497 1.957 3.512 3.426 6.046 4.405 2.534 1.036 5.211 1.554 8.033 1.554 3.224 0 5.873-.69 7.946-2.072 2.13-1.325 3.743-3.398 4.837-6.22 1.094-2.82 1.67-6.362 1.727-10.623l.778-8.637h-1.642c-.633 4.088-1.641 7.37-3.023 9.846-1.324 2.476-2.965 4.261-4.923 5.355-1.958 1.094-4.261 1.641-6.91 1.641-3.282 0-6.046-.806-8.291-2.418-2.188-1.67-3.858-4.117-5.01-7.342-1.094-3.282-1.641-7.284-1.641-12.006v-19.26h9.328v17.188c0 5.47.72 9.472 2.16 12.005 1.497 2.534 3.714 3.8 6.65 3.8 1.613 0 3.052-.403 4.319-1.209s2.361-1.986 3.282-3.54c.979-1.613 1.727-3.6 2.246-5.96.575-2.361.921-5.096 1.036-8.206V36.086h9.415V69.34c0 3.57-.288 6.794-.864 9.673-.576 2.822-1.468 5.298-2.678 7.428-1.151 2.189-2.591 4.002-4.318 5.442-1.728 1.497-3.772 2.591-6.133 3.282-2.303.691-4.923 1.036-7.859 1.036Z"/></svg>
