<svg width="166px" height="26px" viewBox="0 0 166 26" version="1.1" xmlns="http://www.w3.org/2000/svg" xmlns:xlink="http://www.w3.org/1999/xlink">
  <g stroke="none" stroke-width="1" fill="var(--white)" fill-rule="evenodd">
    <g transform="translate(-597.000000, -38.000000)">
      <g transform="translate(597.000000, 38.000000)">
        <g  transform="translate(-0.000019, 0.174427)">
          <path d="M61.4817934,6.97986577e-05 C67.1933718,6.97986577e-05 70.0490744,3.22267383 70.3445397,7.2385396 C70.3445397,7.68472752 70.0490744,8.27976107 69.5567478,8.27976107 L69.5567478,8.27976107 L65.8146492,8.27976107 C65.3223226,8.27976107 65.1252879,7.83357315 65.0268573,7.48649933 C64.5345306,5.8502443 63.1559813,4.80919732 61.2355434,4.80919732 C59.3154521,4.80919732 57.9367295,5.8502443 57.9367295,7.2385396 C57.9367295,9.07299581 60.5255768,9.49340049 63.4226203,10.2157804 L63.8947524,10.3358411 C67.4506016,11.2602138 71.2799777,12.7684691 71.2799777,17.9477477 C71.2799777,22.4098013 67.3902332,25.6324054 62.1711547,25.6324054 C57.1489375,25.6324054 53.1115469,22.6577611 52.7668663,17.9477477 C52.717651,17.5013852 52.9637276,17.1049289 53.6038736,17.1049289 L53.6038736,17.1049289 L57.1489375,17.1049289 C57.5920488,17.1049289 57.8875141,17.3525396 57.9367295,17.798902 C58.1337641,19.5340966 60.0046401,20.5753181 62.1711547,20.5753181 C64.3376692,20.5753181 66.0116839,19.5340966 66.0116839,17.9477477 C66.0116839,13.5848081 52.9145123,16.4601638 52.9145123,7.2385396 C52.9145123,2.97471409 56.6566108,6.97986577e-05 61.4817934,6.97986577e-05 Z M141.147612,7.2385745 C146.169656,7.2385745 150.010359,11.1553262 150.010359,16.4601987 C150.010359,21.7156886 146.169656,25.6322658 141.147612,25.6322658 C135.879318,25.6322658 131.9894,21.7156886 131.9894,16.4601987 C131.9894,11.1553262 135.879318,7.2385745 141.147612,7.2385745 Z M121.058865,7.2385745 C126.277943,7.2385745 130.167688,11.1553262 130.167688,16.4601987 C130.167688,21.7156886 126.277943,25.6322658 121.058865,25.6322658 C116.036648,25.6322658 111.900653,21.7156886 111.900653,16.4601987 C111.900653,11.1553262 116.036648,7.2385745 121.058865,7.2385745 Z M82.2599194,7.2384698 C86.3466985,7.2384698 89.6455125,9.66798658 90.6793811,13.3367785 C90.8272004,13.7829664 90.4825198,14.2291544 89.8917624,14.2291544 L89.8917624,14.2291544 L86.1004486,14.2291544 C85.7557679,14.2291544 85.5589066,14.0804832 85.4110873,13.7829664 C85.0664066,12.7419195 83.7368993,12.0477718 82.2599194,12.0477718 C79.8473281,12.0477718 78.0254942,13.7829664 78.0254942,16.4602685 C78.0254942,18.8400537 79.8473281,20.5754228 82.2599194,20.5754228 C83.7368993,20.5754228 85.0664066,19.9803893 85.3126566,18.9888993 C85.5095179,18.4929799 85.9034139,18.3938658 86.3466985,18.3938658 L86.3466985,18.3938658 L89.8917624,18.3938658 C90.4333044,18.3938658 90.7779851,18.7904966 90.6793811,19.2862416 C89.8917624,23.0047651 86.3466985,25.6323356 82.2599194,25.6323356 C76.9914522,25.6323356 73.003277,21.7157584 73.003277,16.4602685 C73.003277,11.155396 76.9914522,7.2384698 82.2599194,7.2384698 Z M42.2793553,7.2385396 C46.8584611,7.2385396 50.7480324,10.9073315 50.7480324,15.7661906 L50.7480324,15.7661906 L50.7480324,16.6585664 C50.7480324,17.3525396 50.403525,17.6004993 49.9602404,17.6004993 L49.9602404,17.6004993 L37.7002494,17.6004993 C38.0449301,19.9804591 39.9159794,21.2694658 42.0823206,21.2694658 C43.7563353,21.2694658 45.1350579,20.5753181 45.4797385,19.7820564 C45.5781692,19.5340966 45.7258152,19.2861369 46.1690998,19.2861369 L46.1690998,19.2861369 L49.5663444,19.2861369 C50.157275,19.2861369 50.403525,19.7820564 50.2557057,20.3273584 C49.4679137,23.4510228 46.1690998,25.6324054 42.2793553,25.6324054 C37.0601035,25.6324054 33.0227129,21.5174255 33.0227129,16.2123785 C33.0227129,11.1552913 37.0601035,7.2385396 42.2793553,7.2385396 Z M4.56361516,1.77635684e-15 C5.05594182,1.77635684e-15 5.40062247,0.247959732 5.49905314,0.595033557 L5.49905314,0.595033557 L8.25632506,9.96532886 L12.3923196,9.96532886 L15.1003762,0.595033557 C15.1988068,0.247959732 15.5434875,1.77635684e-15 15.9865988,1.77635684e-15 L15.9865988,1.77635684e-15 L18.4485787,1.77635684e-15 C18.89169,1.77635684e-15 19.2363707,0.247959732 19.3348014,0.595033557 L19.3348014,0.595033557 L22.0428579,9.96532886 L26.1786792,9.96532886 L28.9361244,0.595033557 C29.034555,0.247959732 29.3792357,1.77635684e-15 29.8715624,1.77635684e-15 L29.8715624,1.77635684e-15 L33.5150569,1.77635684e-15 C34.2044182,1.77635684e-15 34.5490989,0.595033557 34.4012796,1.04122148 L34.4012796,1.04122148 L27.2127211,23.450953 C26.7696098,24.8390738 25.6371372,25.6323356 24.3570185,25.6323356 C22.9782959,25.6323356 21.9936426,24.8390738 21.5011426,23.450953 L21.5011426,23.450953 L17.5621828,9.96532886 L16.8728215,9.96532886 L12.9338616,23.450953 C12.4415349,24.8390738 11.4568816,25.6323356 10.078159,25.6323356 C8.79804035,25.6323356 7.66556772,24.8390738 7.2224564,23.450953 L7.2224564,23.450953 L0.0337246502,1.04122148 C-0.11392136,0.595033557 0.230759291,1.77635684e-15 0.9199473,1.77635684e-15 L0.9199473,1.77635684e-15 Z M163.844963,22.7780242 L164.65251,25.0141987 L165.460058,22.7780242 L165.863832,22.7780242 L165.863832,25.2853664 L165.527296,25.2853664 L165.527296,23.3878899 L164.854397,25.2853664 L164.450624,25.2853664 L163.777725,23.3878899 L163.777725,25.2853664 L163.441189,25.2853664 L163.441189,22.7780242 L163.844963,22.7780242 Z M162.902801,22.778094 L162.902801,23.1167919 L162.095081,23.1167919 L162.095081,25.2854362 L161.825956,25.2854362 L161.825956,23.1167919 L161.018408,23.1167919 L161.018408,22.778094 L162.902801,22.778094 Z M156.41116,1.77635684e-15 C156.952702,1.77635684e-15 157.248167,0.198402685 157.248167,0.793261745 L157.248167,0.793261745 L157.248167,24.3433289 C157.248167,24.8886309 156.952702,25.2854362 156.41116,25.2854362 L156.41116,25.2854362 L153.112172,25.2854362 C152.619846,25.2854362 152.22595,24.8886309 152.22595,24.3433289 L152.22595,24.3433289 L152.22595,0.793261745 C152.22595,0.198402685 152.57063,1.77635684e-15 153.112172,1.77635684e-15 L153.112172,1.77635684e-15 Z M97.0802516,6.97986577e-05 C97.4741476,6.97986577e-05 97.8680436,0.297586577 97.8680436,0.793331544 L97.8680436,0.793331544 L97.8680436,10.1140698 L98.3605435,10.1140698 C98.7544395,9.22169396 100.379239,7.2385396 103.087295,7.2385396 C107.370936,7.2385396 109.881958,10.3620295 109.881958,15.171157 L109.881958,15.171157 L109.881958,24.3433987 C109.881958,24.8887007 109.586493,25.2853315 109.044951,25.2853315 L109.044951,25.2853315 L105.745963,25.2853315 C105.204421,25.2853315 104.958171,24.8887007 104.958171,24.3433987 L104.958171,24.3433987 L104.958171,15.7661906 C104.958171,13.5848081 103.579622,12.0478416 101.413107,12.0478416 C99.2467662,12.0478416 97.8680436,13.5848081 97.8680436,15.7661906 L97.8680436,15.7661906 L97.8680436,24.3433987 C97.8680436,24.8887007 97.4741476,25.2853315 97.0802516,25.2853315 L97.0802516,25.2853315 L93.7814377,25.2853315 C93.2397224,25.2853315 92.8458264,24.8887007 92.8458264,24.3433987 L92.8458264,24.3433987 L92.8458264,0.793331544 C92.8458264,0.297586577 93.2397224,6.97986577e-05 93.7814377,6.97986577e-05 L93.7814377,6.97986577e-05 Z M141.147612,12.047702 C138.735021,12.047702 136.814756,13.7828966 136.814756,16.4601987 C136.814756,18.8401584 138.735021,20.575353 141.147612,20.575353 C143.313953,20.575353 145.234391,18.8401584 145.234391,16.4601987 C145.234391,13.7828966 143.313953,12.047702 141.147612,12.047702 Z M121.058865,12.047702 C118.646274,12.047702 116.92287,13.7828966 116.92287,16.4601987 C116.92287,18.8401584 118.646274,20.575353 121.058865,20.575353 C123.422241,20.575353 125.145644,18.8401584 125.145644,16.4601987 C125.145644,13.7828966 123.422241,12.047702 121.058865,12.047702 Z M42.0823206,11.403251 C40.1128407,11.403251 38.5372568,12.2956268 37.8478955,14.2292242 L37.8478955,14.2292242 L45.4797385,14.2292242 C45.4797385,12.5435866 43.7563353,11.403251 42.0823206,11.403251 Z" id="Combined-Shape"></path>
        </g>
      </g>
    </g>
  </g>
</svg>